<?xml version="1.0" encoding="UTF-8" standalone="no"?>
<!DOCTYPE svg PUBLIC "-//W3C//DTD SVG 1.1//EN" "http://www.w3.org/Graphics/SVG/1.1/DTD/svg11.dtd">
<svg xmlns="http://www.w3.org/2000/svg" xmlns:xlink="http://www.w3.org/1999/xlink" version="1.1" width="280" height="280" viewBox="0 0 640 640" xml:space="preserve">
<desc>Created with Fabric.js 5.3.0</desc>
<defs>
</defs>
<g transform="matrix(1.2361432694 0 0 1.2361432694 319.2799337335 317.750368149)" id="xhjaC4G4hCfKy5_ZIWJM2">
<g style="" vector-effect="non-scaling-stroke">
		<g transform="matrix(1 0 0 1 -112.0043416598 61.2379700185)" id="CfdCEDZUIX01IkrkV7LdO">
<path style="stroke: rgb(13,90,168); stroke-width: 1; stroke-dasharray: none; stroke-linecap: butt; stroke-dashoffset: 0; stroke-linejoin: miter; stroke-miterlimit: 4; fill: rgb(13,90,168); fill-rule: nonzero; opacity: 1;" vector-effect="non-scaling-stroke"  transform=" translate(-145.3269787283, -184.6032080912)" d="M 287.24999 369.20642 L 228.43227000000002 368.06750999999997 L 219.24676000000002 322.37356 C 199.34409000000002 318.59886 180.40442000000002 312.09247 162.83295000000004 303.25956 L 127.54097000000004 335.62201000000005 L 79.41574000000004 301.78736000000004 L 99.09063000000005 254.59985000000003 C 87.38160000000005 241.60117000000002 77.22657000000005 227.17554000000004 68.91918000000004 211.61658000000003 L 16.10749000000004 214.86571000000004 L 4.263256414560601e-14 158.28506000000004 L 44.89704000000004 134.04349000000005 C 44.02354000000004 126.15556000000005 43.57507000000004 118.14008000000005 43.57507000000004 110.02050000000006 C 43.57507000000004 100.45790000000005 44.19711000000004 91.03971000000006 45.40289000000004 81.80419000000006 L 0.3541900000000453 56.33820000000006 L 17.661340000000045 0.11291000000005624 L 71.09850000000004 4.444050000000057 C 71.93612000000005 2.9516800000000565 72.79094000000005 1.4702400000000568 73.66268000000004 5.684341886080802e-14 C 88.37488000000003 67.57565000000005 111.50434000000004 143.14423000000005 147.58821000000003 204.01147000000006 C 187.24907000000002 270.9124800000001 242.10237000000004 320.58688000000006 290.65395 355.0054200000001 z" stroke-linecap="round"/>
</g>
		<g transform="matrix(1 0 0 1 36.8313416598 -7.1005000185)" id="-N1jGFCKEE_Don-SzE1S4">
<path style="stroke: rgb(4,60,119); stroke-width: 1; stroke-dasharray: none; stroke-linecap: butt; stroke-dashoffset: 0; stroke-linejoin: miter; stroke-miterlimit: 4; fill: rgb(4,60,119); fill-rule: nonzero; opacity: 1;" vector-effect="non-scaling-stroke"  transform=" translate(-220.4999779521, -238.7406818719)" d="M 310.41996 0 L 358.67393 33.65079 L 339.37447 80.19655 C 352.40272999999996 93.31155 363.76146 108.08706000000001 373.10396 124.17636999999999 L 422.8701 120.14276999999998 L 440.17724999999996 176.36805999999999 L 399.65300999999994 199.27637 C 401.32584999999995 210.10617 402.1938099999999 221.20056 402.1938099999999 232.49643999999998 L 402.1938099999999 232.49644999999998 C 402.1938099999999 241.24008999999998 401.6737599999999 249.86298999999997 400.66291999999993 258.33590999999996 L 440.99995999999993 280.11535999999995 L 424.89246999999995 336.69600999999994 L 377.03141999999997 333.75145999999995 C 368.17175999999995 350.41655999999995 357.19446 365.78667999999993 344.45919999999995 379.50215 L 362.82719999999995 423.55526 L 314.70196999999996 457.38991 L 281.14993 426.62297 C 263.55502 435.2645 244.61611 441.58396 224.73368 445.18087 L 216.99128 477.48136000000005 C 168.4397 443.06281000000007 113.58639999999998 393.38842000000005 73.92553999999998 326.48741000000007 C 37.841669999999986 265.6201700000001 14.712209999999985 190.05159000000006 0.000009999999988963282 122.47594000000007 C 7.728239999999989 109.44197000000007 16.78699999999999 97.28841000000007 26.98873999999999 86.20284000000007 L 5.613499999999988 34.650790000000065 L 53.86746999999999 1.000000000000064 L 93.25232 37.259070000000065 C 111.2527 28.681600000000067 130.62346 22.520720000000065 150.94416999999999 19.196890000000064 L 150.94416999999999 105.36515000000007 C 95.18114999999999 120.74739000000007 54.19030999999998 171.86403000000007 54.19030999999998 232.49640000000005 C 54.19030999999998 305.28463000000005 113.26481999999999 364.35914 186.05304999999998 364.35914 C 258.84128 364.35914 317.91579 305.28463000000005 317.91579 232.49640000000002 L 317.91579 232.49639000000002 C 317.91579 171.86403 276.92495 120.74739000000002 221.16194000000002 105.36515000000001 L 221.16194000000002 19.196880000000007 C 239.26319 22.157670000000007 256.61067 27.369620000000005 272.90721 34.53554000000001 z" stroke-linecap="round"/>
</g>
		<g transform="matrix(1 0 0 1 -115.3858988015 46.8868161499)" id="weLtZEEvvAqV6yssf6AnI">
<path style="stroke: rgb(189,203,203); stroke-width: 1; stroke-dasharray: none; stroke-linecap: butt; stroke-dashoffset: 0; stroke-linejoin: miter; stroke-miterlimit: 4; fill: rgb(189,203,203); fill-rule: nonzero; opacity: 1;" vector-effect="non-scaling-stroke"  transform=" translate(-56.4815920273, -102.9232680725)" d="M 0 42.69165 C 0 27.964560000000002 1.83002 13.662290000000002 5.27492 0 C 19.232950000000002 47.60489 37.71459 95.50758 62.12439 136.68268 C 77.25692 162.20864 94.60114999999999 185.22677 112.96319 205.84653 C 46.98379 181.02731 0.000010000000003174137 117.31295 0.000010000000003174137 42.69165000000001 z" stroke-linecap="round"/>
</g>
		<g transform="matrix(1 0 0 1 5.02186883 -11.5731501274)" id="jTyEfOHyLN6pn-qxqn9-Y">
<path style="stroke: rgb(147,155,155); stroke-width: 1; stroke-dasharray: none; stroke-linecap: butt; stroke-dashoffset: 0; stroke-linejoin: miter; stroke-miterlimit: 4; fill: rgb(147,155,155); fill-rule: nonzero; opacity: 1;" vector-effect="non-scaling-stroke"  transform=" translate(-171.6144403412, -172.48025)" d="M 343.22888 170.7086 C 343.22888 266.89565 265.16403 344.9605 168.97698 344.9605 C 147.41124 344.9605 126.75647000000001 341.03630000000004 107.68826 333.86348000000004 C 89.32623 313.24372000000005 71.982 290.22559 56.84946 264.69963000000007 C 32.43966 223.52453000000008 13.958019999999998 175.62184000000008 -0.000009999999996068709 128.01695000000007 C 16.241850000000003 63.60252000000007 68.38069000000002 13.414070000000066 133.8681 5.684341886080802e-14 L 133.8681 43.577360000000056 C 78.10508 58.95960000000005 37.114239999999995 110.07624000000006 37.114239999999995 170.70861000000005 C 37.114239999999995 243.49684000000005 96.18875 302.57135000000005 168.97698 302.57135000000005 C 241.76521 302.57135000000005 300.83972 243.49684000000005 300.83972 170.70861000000005 L 300.83972 170.70860000000005 C 300.83972 110.07624000000004 259.84888 58.95960000000005 204.08587 43.57736000000004 L 204.08587 4.263256414560601e-14 C 283.46314 16.259200000000043 343.22887000000003 86.54681000000004 343.22887000000003 170.70860000000005 z" stroke-linecap="round"/>
</g>
		<g transform="matrix(1 0 0 1 -120.7840004166 49.1351522407)" id="sDCrGwUj7H9x6rNci5749">
<path style="stroke: rgb(13,90,168); stroke-width: 1; stroke-dasharray: none; stroke-linecap: butt; stroke-dashoffset: 0; stroke-linejoin: miter; stroke-miterlimit: 4; fill: rgb(13,90,168); fill-rule: nonzero; opacity: 1;" vector-effect="non-scaling-stroke"  transform=" translate(-32.727575, -64.48925)" d="M 0 2.00931 C 0 1.3385500000000001 0.00424 0.6687700000000001 0.0127 0 C 11.91309 33.72624 26.327569999999998 66.58055 43.76847 96.00033 C 50.58497 107.49858 57.850229999999996 118.48797 65.45515 128.9785 C 25.841700000000003 100.70103999999999 0 54.354659999999996 0 2.009299999999996 z" stroke-linecap="round"/>
</g>
		<g transform="matrix(1 0 0 1 2.390765666 -11.3573873129)" id="J2rEGiXnjF5Du6rrqkBNY">
<path style="stroke: rgb(4,60,119); stroke-width: 1; stroke-dasharray: none; stroke-linecap: butt; stroke-dashoffset: 0; stroke-linejoin: miter; stroke-miterlimit: 4; fill: rgb(4,60,119); fill-rule: nonzero; opacity: 1;" vector-effect="non-scaling-stroke"  transform=" translate(-155.88964, -153.90859)" d="M 311.77928 151.92118 C 311.77928 237.97577 241.93788000000004 307.81717000000003 155.88329000000002 307.81717000000003 C 122.17405000000002 307.81717000000003 90.95263000000001 297.10043 65.44245000000002 278.89038000000005 C 57.83753000000002 268.3998500000001 50.572270000000024 257.41046000000006 43.75577000000003 245.91221000000004 C 26.314870000000028 216.49243000000004 11.900390000000026 183.63812000000004 2.842170943040401e-14 149.91188000000005 C 0.9247800000000285 76.81748000000006 52.23602000000003 15.793760000000049 120.77441000000003 0.000010000000060017555 L 120.77441000000003 24.78994000000006 C 65.01139000000003 40.172180000000054 24.02055000000003 91.28882000000006 24.02055000000003 151.92119000000005 C 24.02055000000003 224.70942000000005 83.09506000000002 283.78393000000005 155.88329000000004 283.78393000000005 C 228.67152000000004 283.78393000000005 287.74603 224.70942000000005 287.74603 151.92119000000005 L 287.74603 151.92118000000005 C 287.74603 91.28882000000004 246.75519000000003 40.172180000000054 190.99218000000002 24.789940000000044 L 190.99218000000002 0.0000100000000458067 C 260.15765 15.938270000000045 311.77928 77.93793000000005 311.77928 151.92118000000005 z" stroke-linecap="round"/>
</g>
		<g transform="matrix(0.9996828728 0 0 1 2.2184588376 40.5104151262)" id="pUs9RzjMgSJ57OaWXkWKu">
<path style="stroke: rgb(181,106,149); stroke-width: 0; stroke-dasharray: none; stroke-linecap: butt; stroke-dashoffset: 0; stroke-linejoin: miter; stroke-miterlimit: 4; fill: rgb(235,164,23); fill-rule: nonzero; opacity: 1;" vector-effect="non-scaling-stroke"  transform=" translate(-131.6550313828, -78.0075327894)" d="M 131.86274 156.01507 C 59.074510000000004 156.01507 0 96.94056 0 24.152330000000006 C 0 20.630240000000008 0.13832 17.140260000000005 0.40982 13.687520000000006 C 32.56716 -4.806119999999993 72.96081 -4.817829999999994 105.59396 15.229950000000006 L 127.91538 28.942840000000004 L 138.19548 33.83015 C 177.88325 52.698310000000006 223.71303 52.85709 263.31006 34.68813 C 257.93672000000004 102.55654 201.10473000000002 156.01506 131.86274000000003 156.01506 z" stroke-linecap="round"/>
</g>
		<g transform="matrix(1 0 0 1 15.9178884807 -78.5686089286)" id="O6l2E0U4YYjzj4SqicvEr">
<path style="stroke: rgb(50,44,217); stroke-width: 0; stroke-dasharray: none; stroke-linecap: butt; stroke-dashoffset: 0; stroke-linejoin: miter; stroke-miterlimit: 4; fill: rgb(235,164,23); fill-rule: nonzero; opacity: 1;" vector-effect="non-scaling-stroke"  transform=" translate(-13.4782616808, -13.4782616808)" d="M 13.47826 0 C 20.91826 0 26.95652 6.03826 26.95652 13.47826 C 26.95652 20.91826 20.91826 26.95652 13.47826 26.95652 C 6.03826 26.95652 0 20.91826 0 13.47826 C 0 6.03826 6.03826 0 13.47826 0 z" stroke-linecap="round"/>
</g>
		<g transform="matrix(1 0 0 1 -9.9841277857 -47.0623411803)" id="OFSJsdQg3VbJc-nDYe1FU">
<path style="stroke: rgb(196,52,108); stroke-width: 0; stroke-dasharray: none; stroke-linecap: butt; stroke-dashoffset: 0; stroke-linejoin: miter; stroke-miterlimit: 4; fill: rgb(235,164,23); fill-rule: nonzero; opacity: 1;" vector-effect="non-scaling-stroke"  transform=" translate(-9.5652220449, -9.5652220449)" d="M 9.56522 0 C 14.845220000000001 0 19.13044 4.28522 19.13044 9.56522 C 19.13044 14.845220000000001 14.845220000000001 19.13044 9.56522 19.13044 C 4.28522 19.13044 0 14.845220000000001 0 9.56522 C 0 4.28522 4.28522 0 9.56522 0 z" stroke-linecap="round"/>
</g>
		<g transform="matrix(1 0 0 1 -24.3319512577 -100.1309858298)" id="ngrP2eLVGJgk0r6ZIzkqZ">
<path style="stroke: rgb(14,9,134); stroke-width: 0; stroke-dasharray: none; stroke-linecap: butt; stroke-dashoffset: 0; stroke-linejoin: miter; stroke-miterlimit: 4; fill: rgb(235,164,23); fill-rule: nonzero; opacity: 1;" vector-effect="non-scaling-stroke"  transform=" translate(-14.3478234719, -14.3478234719)" d="M 14.34782 0 C 22.26782 0 28.69564 6.42783 28.69564 14.34782 C 28.69564 22.26782 22.26781 28.69564 14.34782 28.69564 C 6.4278200000000005 28.69564 0 22.26781 0 14.34782 C 0 6.4278200000000005 6.42783 0 14.34782 0 z" stroke-linecap="round"/>
</g>
</g>
</g>
</svg>